<?xml version="1.0" encoding="utf-8"?>
<svg xmlns="http://www.w3.org/2000/svg" width="560" height="584" viewBox="0 0 560 584">
  <g>
    <path d="M 332.50 567.40 C295.06,572.00 254.85,568.50 218.41,557.45 C164.54,541.13 115.66,506.82 81.86,461.62 C53.60,423.83 37.44,384.23 29.77,334.01 C26.88,315.07 26.89,283.10 29.79,263.99 C34.80,230.94 43.51,202.68 56.60,177.00 C90.45,110.60 148.44,61.76 218.71,40.46 C266.06,26.11 319.21,24.88 367.23,37.03 C432.07,53.43 487.89,94.69 526.96,155.11 L 532.94 164.36 L 529.72 166.32 C527.95,167.40 505.12,180.42 479.00,195.24 C452.88,210.06 430.97,222.63 430.32,223.16 C428.61,224.56 423.00,222.78 417.75,219.17 C410.41,214.12 403.01,212.21 387.98,211.48 C370.12,210.62 359.00,211.96 351.11,215.95 L 345.06 219.00 L 269.13 219.00 L 269.67 215.64 C270.12,212.87 269.68,211.67 267.19,208.89 C264.34,205.70 263.79,205.50 257.83,205.55 C250.25,205.61 246.39,207.38 239.71,213.86 L 234.93 218.50 L 210.21 219.05 C186.84,219.58 185.17,219.74 179.49,222.09 C164.70,228.20 152.60,239.72 145.45,254.50 C134.07,278.01 131.77,301.87 138.56,325.77 C145.04,348.60 157.83,365.31 175.50,374.03 C184.10,378.27 189.65,379.00 213.43,379.00 L 234.58 379.00 L 239.04 383.58 C245.42,390.14 250.17,392.38 257.83,392.45 C263.79,392.50 264.34,392.30 267.19,389.11 C269.68,386.33 270.12,385.13 269.67,382.36 L 269.13 379.00 L 344.79 379.00 L 360.50 386.49 L 380.50 386.41 C402.95,386.31 408.10,385.24 418.31,378.53 C421.53,376.41 423.50,375.09 425.63,374.77 C429.14,374.26 433.05,376.51 443.57,382.54 L 444.01 382.79 C452.53,387.68 474.80,400.36 493.50,410.97 C512.20,421.58 528.72,431.00 530.21,431.90 L 532.91 433.55 L 526.91 442.90 C509.93,469.33 487.97,493.79 464.32,512.62 C451.10,523.14 444.48,527.63 430.50,535.55 C400.26,552.68 368.66,562.96 332.50,567.40 ZM 260.00 382.53 C260.00,383.45 253.46,382.92 251.50,381.84 C248.30,380.07 243.94,375.73 242.39,372.75 L 240.95 370.00 L 217.18 370.00 C191.27,370.00 186.02,369.25 176.57,364.24 C160.24,355.56 146.92,332.22 144.15,307.39 C140.94,278.66 155.87,244.75 176.57,233.76 C186.02,228.75 191.27,228.00 217.18,228.00 L 240.95 228.00 L 242.39 225.25 C245.24,219.80 250.48,215.81 255.53,215.24 C260.11,214.73 260.21,214.77 259.48,217.11 C259.08,218.42 257.90,221.17 256.87,223.21 C255.84,225.25 255.00,227.16 255.00,227.46 C255.00,227.76 275.89,228.00 301.42,228.00 L 347.84 228.00 L 355.14 224.50 L 362.44 221.00 L 380.47 221.01 C400.51,221.01 403.96,221.64 411.86,226.69 C418.70,231.06 420.02,231.55 431.45,233.94 C448.78,237.56 454.50,241.12 459.48,251.40 C470.37,273.86 470.33,324.25 459.39,346.78 C454.32,357.24 448.02,360.94 429.15,364.55 C421.71,365.97 418.53,367.15 413.65,370.33 C404.36,376.36 401.17,377.00 380.56,377.00 L 362.44 377.00 L 355.14 373.50 L 347.84 370.00 L 301.42 370.00 C275.89,370.00 255.00,370.17 255.00,370.38 C255.00,370.58 256.12,373.29 257.50,376.40 C258.88,379.51 260.00,382.27 260.00,382.53 ZM 362.88 368.62 C367.25,370.18 390.39,370.44 397.91,369.02 C400.76,368.48 404.98,366.74 407.29,365.15 C413.71,360.76 419.38,358.12 424.00,357.38 C430.00,356.42 433.51,352.93 438.56,342.89 C443.02,334.00 445.18,331.71 450.25,330.46 C450.42,330.42 450.58,330.38 450.74,330.34 C451.77,330.08 452.39,329.92 452.66,330.16 C453.06,330.53 452.61,331.84 451.46,335.16 C451.35,335.48 451.23,335.82 451.11,336.18 C448.69,343.21 446.30,347.91 443.71,350.75 C440.45,354.31 443.59,353.36 447.88,349.49 C452.47,345.34 455.37,338.29 457.50,326.09 C463.15,293.65 457.66,253.90 446.58,247.05 C442.25,244.37 441.15,244.45 443.71,247.25 C446.30,250.09 448.69,254.79 451.11,261.82 C451.23,262.18 451.35,262.52 451.46,262.84 C452.61,266.16 453.06,267.47 452.66,267.84 C452.39,268.08 451.77,267.92 450.74,267.66 C450.58,267.62 450.42,267.58 450.25,267.54 C445.18,266.29 443.02,264.00 438.56,255.11 C433.48,245.00 429.95,241.52 423.82,240.59 C419.78,239.98 417.16,238.74 404.50,231.40 L 399.50 228.50 L 363.50 228.50 L 351.50 235.50 L 273.10 235.65 C229.97,235.73 192.88,236.08 190.66,236.44 C176.81,238.65 162.57,253.51 155.91,272.72 C150.38,288.63 149.67,301.50 153.47,316.49 C159.34,339.63 171.30,355.29 187.12,360.54 C191.48,361.99 200.97,362.19 271.77,362.34 L 351.50 362.50 L 355.38 364.91 C357.52,366.24 360.89,367.91 362.88,368.62 ZM 256.90 347.09 C244.11,350.89 233.57,354.00 233.48,354.00 C233.39,354.00 232.55,353.16 231.62,352.13 C229.08,349.32 224.47,336.62 221.94,325.43 C218.74,311.30 218.68,286.68 221.82,273.00 C224.56,261.06 228.49,250.17 231.32,246.65 L 233.50 243.94 L 255.47 250.47 C267.56,254.06 277.99,257.00 278.66,257.00 C280.92,257.00 280.81,258.46 277.93,267.05 C273.74,279.56 271.67,292.83 272.31,303.04 C272.90,312.51 276.26,328.11 279.17,334.89 C280.20,337.31 280.85,339.49 280.60,339.74 C280.35,339.98 269.68,343.30 256.90,347.09 ZM 422.69 336.50 C420.62,340.19 420.10,340.51 415.97,340.64 C413.51,340.72 406.55,339.88 400.50,338.77 C389.91,336.84 387.36,336.39 387.27,335.65 C387.24,335.41 387.46,335.15 387.75,334.80 L 387.80 334.74 C391.56,330.20 397.00,309.08 397.00,299.00 C397.00,288.92 391.56,267.80 387.80,263.26 L 387.79 263.25 C387.49,262.89 387.26,262.61 387.29,262.36 C387.39,261.53 390.41,261.04 403.55,258.91 C411.28,257.66 418.39,256.94 419.36,257.31 C421.33,258.07 425.93,267.65 428.34,276.03 C433.76,294.91 431.32,321.07 422.69,336.50 ZM 306.20 356.38 C293.17,356.73 274.85,357.26 265.50,357.56 C246.22,358.17 246.04,357.88 262.32,352.38 C284.53,344.87 299.05,342.08 319.91,341.29 C334.78,340.72 335.30,340.77 334.56,342.60 C334.13,343.65 332.91,347.03 331.84,350.12 L 329.90 355.74 ZM 334.74 255.75 C335.29,257.21 315.94,257.32 305.00,255.91 C289.70,253.94 255.06,244.51 250.00,240.94 C248.93,240.18 253.24,240.04 265.00,240.43 C274.08,240.73 292.37,241.27 305.66,241.62 L 329.82 242.25 L 332.05 248.37 C333.27,251.74 334.48,255.06 334.74,255.75 ZM 171.61 328.43 C172.52,330.80 168.91,330.41 164.90,327.71 C160.75,324.92 157.51,316.68 156.11,305.35 C154.73,294.23 158.41,275.66 162.78,271.70 C165.08,269.61 172.00,266.71 172.00,267.83 C172.00,268.30 171.07,272.24 169.94,276.59 C166.74,288.89 166.34,304.30 168.90,316.68 C170.06,322.28 171.28,327.57 171.61,328.43 ZM 372.00 353.94 C345.77,355.76 336.00,356.16 336.00,355.41 C336.00,354.99 337.00,351.52 338.23,347.71 L 340.47 340.78 L 349.48 341.45 C364.50,342.57 392.00,349.48 392.00,352.14 C392.00,352.61 390.54,353.00 388.75,353.00 C386.96,353.01 379.42,353.43 372.00,353.94 ZM 369.41 253.50 C363.58,254.82 354.68,256.20 349.64,256.57 L 340.47 257.24 L 338.15 250.04 C336.88,246.08 336.04,242.62 336.30,242.36 C336.56,242.10 345.04,242.37 355.14,242.96 C385.78,244.75 392.00,245.26 392.00,246.01 C392.00,247.20 380.70,250.95 369.41,253.50 ZM 171.09 262.47 C168.70,263.31 166.58,264.00 166.37,264.00 C165.30,264.00 166.33,260.95 168.93,256.42 C174.36,246.95 183.48,241.02 192.50,241.07 L 197.50 241.10 L 195.00 242.77 C193.62,243.68 188.66,248.15 183.97,252.68 C178.25,258.21 174.00,261.44 171.09,262.47 ZM 194.50 354.76 L 197.50 356.94 L 192.45 356.97 C182.96,357.03 172.80,349.83 167.78,339.48 C166.59,337.04 165.86,334.80 166.16,334.51 C166.45,334.22 168.65,334.67 171.06,335.52 C173.95,336.54 178.15,339.69 183.46,344.83 C187.88,349.10 192.85,353.57 194.50,354.76 Z" style="fill: rgb(0, 212, 245); stroke: rgb(0, 0, 0); stroke-width: 3px;"/>
  </g>
</svg>
