<?xml version="1.0" encoding="UTF-8"?><svg id="a" xmlns="http://www.w3.org/2000/svg" xmlns:xlink="http://www.w3.org/1999/xlink" viewBox="0 0 492.91 105.8"><defs><style>.d{fill:url(#c);}.e{fill:url(#b);}.f{fill:#2a4b9a;}.g{fill:#272727;}</style><linearGradient id="b" x1="234.91" y1="118.52" x2="245.21" y2="78.04" gradientTransform="matrix(1, 0, 0, 1, 0, 0)" gradientUnits="userSpaceOnUse"><stop offset="0" stop-color="#e3042b"/><stop offset=".41" stop-color="#d30727"/><stop offset="1" stop-color="#b70e22"/></linearGradient><linearGradient id="c" x1="208.68" y1="-2.63" x2="171.89" y2="81.26" gradientTransform="matrix(1, 0, 0, 1, 0, 0)" gradientUnits="userSpaceOnUse"><stop offset="0" stop-color="#fbbb00"/><stop offset=".51" stop-color="#fbbb00"/><stop offset="1" stop-color="#b18805"/></linearGradient></defs><path d="M33.18,46.02l1.73,59.77H0V0H48.96l20.15,56.93h.79L87.37,0h50.53V105.8h-36.48l1.1-59.47-.94-.15-20.76,59.62h-26.42l-20.44-59.77h-.79Z" style="fill:#272727;"/><path d="M273.08,0h47.96c5.45,0,10.87,.52,16.27,1.57,5.4,1.05,10.22,2.89,14.47,5.53,4.25,2.64,7.68,6.18,10.3,10.61,2.62,4.43,3.93,9.99,3.93,16.66s-1.67,12.18-5.02,17.11c-3.35,4.93-8.15,8.74-14.42,11.43l28.25,42.89h-42.99l-21.33-37.81h-1.1v37.81h-36.32V0Zm36.01,44.68h7.33c1.25,0,2.63-.1,4.13-.3,1.51-.2,2.91-.62,4.21-1.27,1.3-.65,2.39-1.54,3.28-2.69,.88-1.14,1.33-2.66,1.33-4.56s-.37-3.39-1.09-4.48c-.73-1.1-1.66-1.92-2.81-2.47-1.15-.55-2.39-.9-3.74-1.05-1.35-.15-2.6-.22-3.74-.22h-8.89v17.04Z" style="fill:#272727;"/><path d="M448.72,105.8h-37.42V62.46L369.31,0h45.13l17.61,31.08L448.88,0h44.03l-44.19,62.46v43.34Z" style="fill:#272727;"/><g><path d="M220.91,86.9l17.51-6.01c6.65-2.03,13.98,.73,17.68,6.78l-13.94-26.91-.11-.22c-2.61-4.81-7.71-8.08-13.58-8.08-1.77,0-3.47,.3-5.05,.85l-28.75,9.77h0l-5.62,1.91c-.2,.07-.39,.14-.59,.2h-.03c-3.73,1.17-7.9,.93-11.66-.99-7.58-3.9-10.57-13.21-6.68-20.79l2.61-5.06h0l-23.01,44.49c-1.17,2.18-1.84,4.66-1.84,7.31,0,8.53,6.91,15.44,15.44,15.44,1.36,0,2.69-.18,3.94-.51l1.75-.58,51.9-17.6" style="fill:#2a4b9a;"/><path d="M226.06,97.06c2.54,5.05,7.77,8.52,13.81,8.52,1.66,0,3.25-.26,4.75-.74l17.32-5.91-5.27-10.24c-3.47-6.75-11.24-9.95-18.26-7.8l-17.51,6.01,5.15,10.16Z" style="fill:url(#b);"/><path d="M219.1,15.65l-3.39-6.56c-2.47-5.24-7.8-8.87-13.97-8.87s-11.13,3.38-13.7,8.32l-17.95,34.86c-3.9,7.58-.91,16.89,6.68,20.79,3.75,1.93,7.92,2.17,11.66,1h.03c.2-.07,.4-.14,.59-.21l5.62-1.91,2.74-5.3c.05-.09,.1-.17,.14-.26l18.24-35.44s.02-.05,.03-.07l3.28-6.35Z" style="fill:url(#c);"/></g></svg>